<svg xmlns="http://www.w3.org/2000/svg" viewBox="0 0 659.72 152.4"><defs><style>.cls-1{fill:#164734;}</style></defs><title>Asset 1</title><g id="Layer_2" data-name="Layer 2"><g id="Layer_1-2" data-name="Layer 1"><path class="cls-1" d="M0,76.14C0,22.54,16.6.34,44.2.34c26.6,0,37.2,18.8,39.8,51l-20.8,2.2c-2.4-23.2-7.4-33.2-19-33.2-15.8,0-22.2,18.4-22.2,55.6,0,38.2,6.6,56.6,22.4,56.6,12.2,0,17.6-9.4,20.4-34.6l20.8,2c-3.8,29.6-14.2,51.8-41.2,51.8C16,151.74,0,130.14,0,76.14Z"/><path class="cls-1" d="M106.15,76.27c0-53,18-75.8,45.4-75.8,27,0,45.2,22.8,45.2,75.8s-18.2,75.79-45.2,75.79C124.15,152.06,106.15,129.26,106.15,76.27Zm68.2,0c0-37.2-7-55.8-22.8-55.8-16.2,0-23.4,18.6-23.4,55.8s7.2,56.39,23.4,56.39C167.35,132.66,174.35,113.46,174.35,76.27Z"/><path class="cls-1" d="M297.4,150.14H275.6l-20.8-57.6H240.4v57.6H219V2.14h32.4c28,0,44,13.2,44,44.6,0,16.6-5.2,32.2-21,40Zm-45.6-75.4c15.8,0,22.2-7,22.2-27.6,0-19.6-6.2-26-23-26H240.4v53.6Z"/><path class="cls-1" d="M318,2.14h34.8c22.4,0,41.8,10.2,41.8,45.2,0,38.4-21.2,46.8-42.6,46.8H339.6v56H318Zm35,73.8c13.4,0,20-7.6,20-28,0-19.6-6.4-26.8-20.2-26.8H339.6v54.8Z"/><path class="cls-1" d="M417,103.54V2.14h21.6v99c0,20.8,4,31.8,18.4,31.8,14.2,0,18.2-10.8,18.2-31.4V2.14h20.6v101c0,30.6-9.8,48.6-39.2,48.6C427,151.74,417,133.34,417,103.54Z"/><path class="cls-1" d="M513.33,110.2l20-3.8c3.4,17.4,10,27,23,27,11.6,0,16.8-7,16.8-17,0-27.8-54.8-40.8-54.8-80.8,0-22,14.8-35.6,36.8-35.6,22.6,0,32.8,15.2,38.2,38.4l-19.4,5c-4-16-9.2-24-19.6-24-9.2,0-14.6,5.2-14.6,14.8,0,29.6,54.8,40.8,54.8,81.2,0,22-15.6,37-38.4,37C529.93,152.4,518.13,135.4,513.33,110.2Z"/><path class="cls-1" d="M615,22.87A22.19,22.19,0,0,1,637.45.36a21.91,21.91,0,0,1,22.27,22.27,22.21,22.21,0,0,1-22.44,22.51A21.87,21.87,0,0,1,615,22.87Zm40.23,0c0-10.5-7.64-18.43-18-18.43s-17.79,7.76-17.79,18.19,7.64,18.43,18,18.43S655.23,33.3,655.23,22.87ZM628.53,10.1H638c5.89,0,9.45,2.56,9.45,7.93,0,3.85-1.81,5.95-4.49,7l4.78,9.33h-6.12l-4.31-8.57h-3v8.57h-5.77Zm9.09,11.54c2.75,0,4.09-1,4.09-3.26s-1.34-3.15-4.09-3.15H634.3v6.41Z"/></g></g></svg>