<svg xmlns="http://www.w3.org/2000/svg" viewBox="0 0 300 156"><defs><style>.cls-1{fill:#154734;}</style></defs><title>Asset 3</title><g id="Layer_2" data-name="Layer 2"><g id="Layer_1-2" data-name="Layer 1"><path class="cls-1" d="M0,0V156H300V0ZM288,135.52h0V135s0,.19,0,.49L164.51,12c.17,0,.31,0,.47,0H279c9,0,9,9,9,9V12h0ZM156,135v9h0V20.48h0V21s0-.19,0-.49L279.48,144c-.16,0-.3,0-.47,0H165C156,144,156,135,156,135ZM135,12c9,0,9,9,9,9V12h0V78A66,66,0,0,1,31.33,124.67,66,66,0,0,1,78,12ZM12,12h0v9s0-9,9-9H36.42A78.48,78.48,0,0,0,12,36.42Zm9,132c-9,0-9-9-9-9v9h0V119.58A78.48,78.48,0,0,0,36.42,144Zm112.16-10.85A78.24,78.24,0,0,0,144,119.58V144h0v-9s0,9-9,9H119.58A78.24,78.24,0,0,0,133.15,133.15Z"/></g></g></svg>