<?xml version="1.0" encoding="UTF-8"?>
<svg width="30px" height="26px" viewBox="0 0 30 26" version="1.1" xmlns="http://www.w3.org/2000/svg" xmlns:xlink="http://www.w3.org/1999/xlink">
    <!-- Generator: Sketch 48.2 (47327) - http://www.bohemiancoding.com/sketch -->
    <title>Cart</title>
    <desc>Created with Sketch.</desc>
    <defs></defs>
    <g id="Primary-Navigation-Logo-+-Menu" stroke="none" stroke-width="1" fill="none" fill-rule="evenodd" transform="translate(-1231.000000, -17.000000)" stroke-linecap="round" stroke-linejoin="round">
        <g id="Logo-+-Menu" stroke="#154734" stroke-width="2">
            <g id="Cart" transform="translate(1232.000000, 18.000000)">
                <path d="M14.7208672,21.4861111 C14.7208672,22.7741111 13.6755339,23.8194444 12.3875339,23.8194444 C11.0995339,23.8194444 10.0542005,22.7741111 10.0542005,21.4861111 C10.0542005,20.1981111 11.0995339,19.1527778 12.3875339,19.1527778 C13.6755339,19.1527778 14.7208672,20.1981111 14.7208672,21.4861111 Z" id="Stroke-1"></path>
                <path d="M24.4715447,21.4861111 C24.4715447,22.7741111 23.4262114,23.8194444 22.1382114,23.8194444 C20.8502114,23.8194444 19.804878,22.7741111 19.804878,21.4861111 C19.804878,20.1981111 20.8502114,19.1527778 22.1382114,19.1527778 C23.4262114,19.1527778 24.4715447,20.1981111 24.4715447,21.4861111 Z" id="Stroke-3"></path>
                <polyline id="Stroke-5" points="0.303523035 0.291666667 4.59078591 0.291666667 8.87804878 16.5277778 25.2682927 16.5277778 28 6.02777778 6.75399458 6.02777778"></polyline>
            </g>
        </g>
    </g>
</svg>