<?xml version="1.0" encoding="UTF-8"?>
<svg width="90px" height="22px" viewBox="0 0 90 22" version="1.1" xmlns="http://www.w3.org/2000/svg" xmlns:xlink="http://www.w3.org/1999/xlink">
    <!-- Generator: Sketch 48.2 (47327) - http://www.bohemiancoding.com/sketch -->
    <title>Page 1</title>
    <desc>Created with Sketch.</desc>
    <defs>
        <polygon id="path-1" points="11.1851375 21 0.0201375 21 0.0201375 0.0448875 11.1851375 0.0448875"></polygon>
    </defs>
    <g id="Primary-Navigation-Logo-+-Menu" stroke="none" stroke-width="1" fill="none" fill-rule="evenodd" transform="translate(-20.000000, -20.000000)">
        <g id="Logo-+-Menu">
            <g transform="translate(20.000000, 20.000000)" id="Page-1">
                <g>
                    <path d="M0,10.6025875 C0,3.2325875 2.2825,0.1799625 6.077625,0.1799625 C9.735125,0.1799625 11.192625,2.7650875 11.55,7.1925875 L8.690125,7.4950875 C8.360125,4.3050875 7.672625,2.9299625 6.077625,2.9299625 C3.905,2.9299625 3.025,5.4599625 3.025,10.5750875 C3.025,15.8275875 3.932625,18.3575875 6.105,18.3575875 C7.782625,18.3575875 8.525125,17.0650875 8.910125,13.6000875 L11.77,13.8750875 C11.2475,17.9450875 9.817625,20.9975875 6.105,20.9975875 C2.2,20.9975875 0,18.0275875 0,10.6025875" id="Fill-1" fill="#154734"></path>
                    <path d="M23.5756875,10.6025875 C23.5756875,5.4875875 22.6133125,2.9299625 20.4406875,2.9299625 C18.2131875,2.9299625 17.2231875,5.4875875 17.2231875,10.6025875 C17.2231875,15.7175875 18.2131875,18.3575875 20.4406875,18.3575875 C22.6133125,18.3575875 23.5756875,15.7175875 23.5756875,10.6025875 M14.1980625,10.6025875 C14.1980625,3.3149625 16.6730625,0.1799625 20.4406875,0.1799625 C24.1531875,0.1799625 26.6558125,3.3149625 26.6558125,10.6025875 C26.6558125,17.8900875 24.1531875,21.0252125 20.4406875,21.0252125 C16.6730625,21.0252125 14.1980625,17.8900875 14.1980625,10.6025875" id="Fill-3" fill="#154734"></path>
                    <path d="M33.8330125,10.410075 C36.0055125,10.410075 36.8855125,9.447575 36.8855125,6.615075 C36.8855125,3.920075 36.0330125,3.040075 33.7228875,3.040075 L32.2655125,3.040075 L32.2655125,10.410075 L33.8330125,10.410075 Z M40.1030125,20.777575 L37.1055125,20.777575 L34.2455125,12.857575 L32.2655125,12.857575 L32.2655125,20.777575 L29.3230125,20.777575 L29.3230125,0.427575 L33.7781375,0.427575 C37.6278875,0.427575 39.8280125,2.24245 39.8280125,6.560075 C39.8280125,8.842575 39.1130125,10.987575 36.9403875,12.060075 L40.1030125,20.777575 Z" id="Fill-5" fill="#154734"></path>
                    <path d="M47.9401875,10.575125 C49.7826875,10.575125 50.6901875,9.530125 50.6901875,6.725 C50.6901875,4.030125 49.8101875,3.040125 47.9125625,3.040125 L46.0976875,3.040125 L46.0976875,10.575125 L47.9401875,10.575125 Z M43.1276875,0.4275 L47.9125625,0.4275 C50.9926875,0.4275 53.6601875,1.83 53.6601875,6.6425 C53.6601875,11.9225 50.7450625,13.077625 47.8026875,13.077625 L46.0976875,13.077625 L46.0976875,20.777625 L43.1276875,20.777625 L43.1276875,0.4275 Z" id="Fill-7" fill="#154734"></path>
                    <path d="M55.8598625,14.3700375 L55.8598625,0.4275375 L58.8299875,0.4275375 L58.8299875,14.0400375 C58.8299875,16.9000375 59.3798625,18.4126625 61.3599875,18.4126625 C63.3124875,18.4126625 63.8624875,16.9276625 63.8624875,14.0951625 L63.8624875,0.4275375 L66.6951125,0.4275375 L66.6951125,14.3151625 C66.6951125,18.5226625 65.3473625,20.9976625 61.3049875,20.9976625 C57.2348625,20.9976625 55.8598625,18.4675375 55.8598625,14.3700375" id="Fill-9" fill="#154734"></path>
                    <g id="Group-13" transform="translate(69.375000, 0.080125)">
                        <mask id="mask-2" fill="white">
                            <use xlink:href="#path-1"></use>
                        </mask>
                        <g id="Clip-12"></g>
                        <path d="M0.0201375,15.1975125 L2.7701375,14.6748875 C3.2375125,17.0675125 4.1451375,18.3875125 5.9326375,18.3875125 C7.5276375,18.3875125 8.2426375,17.4250125 8.2426375,16.0498875 C8.2426375,12.2273875 0.7076375,10.4398875 0.7076375,4.9398875 C0.7076375,1.9148875 2.7426375,0.0448875 5.7675125,0.0448875 C8.8752625,0.0448875 10.2776375,2.1348875 11.0202625,5.3250125 L8.3526375,6.0125125 C7.8027625,3.8123875 7.0876375,2.7123875 5.6577625,2.7123875 C4.3925125,2.7123875 3.6501375,3.4273875 3.6501375,4.7473875 C3.6501375,8.8173875 11.1851375,10.3573875 11.1851375,15.9125125 C11.1851375,18.9375125 9.0401375,21.0000125 5.9051375,21.0000125 C2.3026375,21.0000125 0.6801375,18.6625125 0.0201375,15.1975125" id="Fill-11" fill="#154734" mask="url(#mask-2)"></path>
                    </g>
                    <g id="Group-16" transform="translate(83.250000, 0.330125)" fill="#154734">
                        <path d="M3.3951375,3.3006625 C3.8061375,3.3006625 4.0072625,3.1520375 4.0072625,2.8109125 C4.0072625,2.4872875 3.8061375,2.3386625 3.3951375,2.3386625 L2.8967625,2.3386625 L2.8967625,3.3006625 L3.3951375,3.3006625 Z M2.0308875,1.5690375 L3.4476375,1.5690375 C4.3307625,1.5690375 4.8642625,1.9539125 4.8642625,2.7584125 C4.8642625,3.3355375 4.5932625,3.6504125 4.1908875,3.8166625 L4.9081375,5.2157875 L3.9897625,5.2157875 L3.3427625,3.9302875 L2.8967625,3.9302875 L2.8967625,5.2157875 L2.0308875,5.2157875 L2.0308875,1.5690375 Z M6.0361375,3.4842875 C6.0361375,1.9101625 4.8906375,0.7207875 3.3427625,0.7207875 C1.8035125,0.7207875 0.6753875,1.8839125 0.6753875,3.4492875 C0.6753875,5.0234125 1.8210125,6.2127875 3.3688875,6.2127875 C4.9081375,6.2127875 6.0361375,5.0496625 6.0361375,3.4842875 Z M0.0018875,3.4842875 C0.0018875,1.5865375 1.4711375,0.1086625 3.3688875,0.1086625 C5.2577625,0.1086625 6.7096375,1.5602875 6.7096375,3.4492875 C6.7096375,5.3470375 5.2316375,6.8249125 3.3427625,6.8249125 C1.4448875,6.8249125 0.0018875,5.3732875 0.0018875,3.4842875 Z" id="Fill-14"></path>
                    </g>
                </g>
            </g>
        </g>
    </g>
</svg>