<svg xmlns="http://www.w3.org/2000/svg" viewBox="0 0 296 152"><defs><style>.cls-1{fill:#154734;}</style></defs><title>Asset 1</title><g id="Layer_2" data-name="Layer 2"><g id="Layer_1-2" data-name="Layer 1"><path class="cls-1" d="M0,0V152H296V0ZM288,138.34h0V135a11,11,0,0,1-.48,2.86L158,8.38A10.81,10.81,0,0,1,161,8H279c.33,0,9,.17,9,9V8h0Zm-136-3.23V16.81a11.83,11.83,0,0,1,.47-2.68L282,143.62a11,11,0,0,1-3,.38H161C160.83,144,152.07,143.92,152,135.11ZM135,8c.33,0,8.9.18,9,8.91V76A68,68,0,0,1,27.92,124.08,68,68,0,0,1,76,8ZM8,8H8v9s0-9,9-9H42A76.34,76.34,0,0,0,8,42Zm9,136c-.16,0-9-.08-9-9v9H8V110a76.34,76.34,0,0,0,34,34Zm112.75-14.26A76.13,76.13,0,0,0,144,110v25.19c-.05,1.18-.69,8.83-9,8.83H110A76.13,76.13,0,0,0,129.74,129.74Z"/></g></g></svg>