<?xml version="1.0" encoding="UTF-8"?>
<svg width="119px" height="62px" viewBox="0 0 119 62" version="1.1" xmlns="http://www.w3.org/2000/svg" xmlns:xlink="http://www.w3.org/1999/xlink">
    <!-- Generator: Sketch 49 (51002) - http://www.bohemiancoding.com/sketch -->
    <title>Page 1</title>
    <desc>Created with Sketch.</desc>
    <defs>
        <polygon id="path-1" points="118.82248 61.0168287 118.82248 0 8.02854594e-05 0 8.02854594e-05 61.0168287 118.82248 61.0168287"></polygon>
    </defs>
    <g id="Scent-Menu" stroke="none" stroke-width="1" fill="none" fill-rule="evenodd">
        <g id="02_768_Scent-Menu-(Loader)" transform="translate(-324.000000, -481.000000)">
            <g id="Page-1" transform="translate(324.000000, 481.000000)">
                <mask id="mask-2" fill="white">
                    <use xlink:href="#path-1"></use>
                </mask>
                <g id="Clip-2"></g>
                <path d="M52.0812578,52.0810571 C54.4388403,49.7234746 56.3548528,47.0443488 57.8056111,44.1476494 L57.8056111,54.2600045 C57.7855397,54.7328858 57.5298305,57.8042061 54.1971811,57.8054103 L44.1478501,57.8054103 C47.0445495,56.3546521 49.7236753,54.4386396 52.0812578,52.0810571 Z M6.81872435,57.8054103 C6.75690455,57.8054103 3.21149866,57.7745004 3.21149866,54.1929661 L3.21149866,57.8054103 L3.21149866,44.1476494 C4.66225691,47.0443488 6.57786798,49.723876 8.93585192,52.0810571 C11.2934344,54.4386396 13.9721588,56.3546521 16.8688582,57.8054103 L6.81872435,57.8054103 Z M3.21149866,3.21129795 L3.21149866,6.82414362 C3.21149866,6.82414362 3.21190009,3.21450937 6.82033006,3.21129795 L16.8688582,3.21129795 C13.9721588,4.6620562 11.2934344,6.57806869 8.93585192,8.9356512 C6.57786798,11.2932337 4.66225691,13.9723595 3.21149866,16.8690589 L3.21149866,3.21129795 Z M54.2072168,3.21129795 C54.3396878,3.21290366 57.7807226,3.28194915 57.8056111,6.78801517 L57.8056111,30.5083541 C57.8056111,37.7998796 54.9663158,44.6546521 49.8103836,49.8105843 C44.6548528,54.9661151 37.7996789,57.8054103 30.5085549,57.8054103 C23.2170294,57.8054103 16.3622569,54.9661151 11.2067261,49.8105843 C6.05079393,44.6546521 3.21149866,37.7998796 3.21149866,30.5083541 C3.21149866,23.2176316 6.05079393,16.3624576 11.2067261,11.206124 C16.3622569,6.05099465 23.2170294,3.21129795 30.5085549,3.21129795 L54.2072168,3.21129795 Z M61.0170294,54.2347145 L61.0170294,6.74947814 C61.0238537,6.59131579 61.0559679,6.17463426 61.207306,5.67285013 L113.18612,57.6512623 C112.841695,57.7492105 112.448698,57.8054103 111.999902,57.8054103 L64.6214451,57.8054103 C64.5600268,57.8054103 61.0463336,57.7720919 61.0170294,54.2347145 Z M115.611142,55.5349376 L115.61074,54.1929661 C115.61074,54.1929661 115.610339,54.7039831 115.418055,55.341851 L63.4412489,3.3650446 C63.7844692,3.26749777 64.1758608,3.2121008 64.6230508,3.21129795 L112.010339,3.21129795 C112.14281,3.21290366 115.61074,3.28034344 115.61074,6.82414362 L115.611142,3.21129795 L115.611142,55.5349376 Z M8.02854594e-05,61.0168287 L118.82256,61.0168287 L118.82256,-0.000120428189 L8.02854594e-05,-0.000120428189 L8.02854594e-05,61.0168287 Z" id="Fill-1" fill="#F2F9F5" mask="url(#mask-2)"></path>
            </g>
        </g>
    </g>
</svg>